<svg xmlns="http://www.w3.org/2000/svg" xmlns:xlink="http://www.w3.org/1999/xlink" version="1.2" width="121.97mm" height="32.08mm" viewBox="-0.0600 -0.0000 69.4050 18.2568">
<style type="text/css">
<![CDATA[
tspan { white-space: pre; }
]]>
</style>
<g transform="translate(0.0000, 7.5450)">
<rect x="62.1409" y="-0.1000" width="2.9430" height="0.2000" ry="0.1000" fill="currentColor"/>
</g>
<g transform="translate(0.0000, 7.5450)">
<rect x="56.5173" y="-0.1000" width="2.9430" height="0.2000" ry="0.1000" fill="currentColor"/>
</g>
<g transform="translate(0.0000, 0.5450)">
<rect x="33.7752" y="-0.1000" width="2.9430" height="0.2000" ry="0.1000" fill="currentColor"/>
</g>
<g transform="translate(0.0000, 1.5450)">
<rect x="33.7752" y="-0.1000" width="2.9430" height="0.2000" ry="0.1000" fill="currentColor"/>
</g>
<g transform="translate(0.0000, 7.5450)">
<rect x="11.0331" y="-0.1000" width="2.9430" height="0.2000" ry="0.1000" fill="currentColor"/>
</g>
<g transform="translate(0.0000, 7.5450)">
<rect x="5.4095" y="-0.1000" width="2.9430" height="0.2000" ry="0.1000" fill="currentColor"/>
</g>
<g transform="translate(0.0000, 6.5450)">
<line stroke-linejoin="round" stroke-linecap="round" stroke-width="0.1000" stroke="currentColor" x1="0.0500" y1="0" x2="69.2950" y2="0"/>
</g>
<g transform="translate(0.0000, 5.5450)">
<line stroke-linejoin="round" stroke-linecap="round" stroke-width="0.1000" stroke="currentColor" x1="0.0500" y1="0" x2="69.2950" y2="0"/>
</g>
<g transform="translate(0.0000, 4.5450)">
<line stroke-linejoin="round" stroke-linecap="round" stroke-width="0.1000" stroke="currentColor" x1="0.0500" y1="0" x2="69.2950" y2="0"/>
</g>
<g transform="translate(0.0000, 3.5450)">
<line stroke-linejoin="round" stroke-linecap="round" stroke-width="0.1000" stroke="currentColor" x1="0.0500" y1="0" x2="69.2950" y2="0"/>
</g>
<g transform="translate(0.0000, 2.5450)">
<line stroke-linejoin="round" stroke-linecap="round" stroke-width="0.1000" stroke="currentColor" x1="0.0500" y1="0" x2="69.2950" y2="0"/>
</g>
<g transform="translate(68.7450, 13.8747)">
<rect x="0.0000" y="-3.7500" width="0.6000" height="7.5000" ry="0.0000" fill="currentColor"/>
</g>
<g transform="translate(68.2550, 13.8747)">
<rect x="0.0000" y="-3.7500" width="0.1900" height="7.5000" ry="0.0000" fill="currentColor"/>
</g>
<g transform="translate(0.0000, 17.6247)">
<line stroke-linejoin="round" stroke-linecap="round" stroke-width="0.1000" stroke="currentColor" x1="0.0500" y1="0" x2="69.2950" y2="0"/>
</g>
<g transform="translate(0.0000, 16.1247)">
<line stroke-linejoin="round" stroke-linecap="round" stroke-width="0.1000" stroke="currentColor" x1="0.0500" y1="0" x2="69.2950" y2="0"/>
</g>
<g transform="translate(0.0000, 14.6247)">
<line stroke-linejoin="round" stroke-linecap="round" stroke-width="0.1000" stroke="currentColor" x1="0.0500" y1="0" x2="69.2950" y2="0"/>
</g>
<g transform="translate(0.0000, 13.1247)">
<line stroke-linejoin="round" stroke-linecap="round" stroke-width="0.1000" stroke="currentColor" x1="0.0500" y1="0" x2="69.2950" y2="0"/>
</g>
<g transform="translate(0.0000, 11.6247)">
<line stroke-linejoin="round" stroke-linecap="round" stroke-width="0.1000" stroke="currentColor" x1="0.0500" y1="0" x2="69.2950" y2="0"/>
</g>
<g transform="translate(0.0000, 10.1247)">
<line stroke-linejoin="round" stroke-linecap="round" stroke-width="0.1000" stroke="currentColor" x1="0.0500" y1="0" x2="69.2950" y2="0"/>
</g>
<g transform="translate(68.7450, 4.5450)">
<rect x="0.0000" y="-2.0000" width="0.6000" height="4.0000" ry="0.0000" fill="currentColor"/>
</g>
<g transform="translate(68.2550, 4.5450)">
<rect x="0.0000" y="-2.0000" width="0.1900" height="4.0000" ry="0.0000" fill="currentColor"/>
</g>
<a style="color:inherit;" xlink:href="textedit:///Volumes/chris_1TB/Documents/musictheory_and_thefretboard/tools/fretboard-generator/tab/c-on-all-strings.ly:17:26:27">
<g color="rgba(100%, 100%, 100%, 100.0000%)">
<g transform="translate(34.2657, 10.1247)">
<rect x="0.0990" y="-0.6321" width="0.9902" height="1.2641" ry="0.0000" fill="currentColor"/>
</g>
</g>
<g transform="translate(34.3647, 10.7358)">
<text font-family="serif" font-weight="bold" font-size="1.7459" text-anchor="start" fill="currentColor">
<tspan>8</tspan>
</text>
</g>
</a>
<a style="color:inherit;" xlink:href="textedit:///Volumes/chris_1TB/Documents/musictheory_and_thefretboard/tools/fretboard-generator/tab/c-on-all-strings.ly:17:2:3">
<g transform="translate(5.9000, 7.5450)">
<path transform="scale(0.0040, -0.0040)" d="M347 -26c0 102 -89 139 -133 139c-23 0 -70 -10 -70 -89c0 -91 76 -136 132 -136c22 0 71 8 71 86zM245 136c144 0 246 -65 246 -136s-102 -136 -246 -136s-245 65 -245 136s101 136 245 136z" fill="currentColor"/>
</g>
</a>
<g transform="translate(0.8000, 5.5450)">
<path transform="scale(0.0040, -0.0040)" d="M266 -635h-6c-108 0 -195 88 -195 197c0 58 53 103 112 103c54 0 95 -47 95 -103c0 -52 -43 -95 -95 -95c-11 0 -21 2 -31 6c26 -39 68 -65 117 -65h4zM401 151c19 -89 48 -242 60 -354c76 27 112 94 112 163c0 89 -60 179 -172 191zM74 28c0 -112 98 -247 278 -247
c21 0 44 2 68 6c-7 64 -29 203 -63 364c-79 -8 -124 -61 -124 -119c0 -44 25 -91 81 -123c5 -5 7 -10 7 -15c0 -11 -10 -22 -22 -22c-15 0 -126 62 -126 187c0 88 58 174 160 197c-14 58 -29 117 -46 175c-107 -121 -213 -243 -213 -403zM357 1194c28 0 143 -206 143 -361
c0 -143 -86 -255 -180 -364c21 -68 39 -138 56 -207c5 0 10 1 14 1c155 0 255 -129 255 -262c0 -113 -74 -212 -180 -245c3 -35 5 -70 5 -105c0 -19 -1 -39 -2 -58c-7 -119 -88 -225 -202 -228l1 43c93 2 153 92 159 191c1 18 2 37 2 55c0 31 -1 61 -4 92
c-28 -5 -55 -8 -80 -8c-239 0 -342 217 -342 374c0 177 131 306 248 441c-29 96 -52 170 -52 346c0 189 144 295 159 295zM247 782c0 -55 12 -115 35 -190c82 100 147 202 147 326c0 40 -6 82 -21 127c-49 -24 -161 -97 -161 -263z" fill="currentColor"/>
</g>
<g transform="translate(1.4675, 9.0581)">
<text font-family="serif" font-style="italic" font-size="1.3862" text-anchor="start" fill="currentColor">
<tspan>8</tspan>
</text>
</g>
<a style="color:inherit;" xlink:href="textedit:///Volumes/chris_1TB/Documents/musictheory_and_thefretboard/tools/fretboard-generator/tab/c-on-all-strings.ly:17:2:3">
<g color="rgba(100%, 100%, 100%, 100.0000%)">
<g transform="translate(5.9000, 17.6247)">
<rect x="0.0990" y="-0.6321" width="0.9902" height="1.2641" ry="0.0000" fill="currentColor"/>
</g>
</g>
<g transform="translate(5.9990, 18.2358)">
<text font-family="serif" font-weight="bold" font-size="1.7459" text-anchor="start" fill="currentColor">
<tspan>8</tspan>
</text>
</g>
</a>
<g transform="translate(0.8000, 13.8747)">
<path transform="scale(0.0040, -0.0040)" d="M267 -425c0 -9 -1 -27 -43 -27c-41 0 -84 28 -84 75c0 82 118 130 234 130c54 0 217 -8 217 -103c0 -43 -36 -88 -71 -110c58 -11 102 -36 102 -91c0 -85 -90 -158 -179 -158c-73 0 -111 51 -111 60c0 12 16 25 28 25c13 0 17 -25 54 -25c44 0 95 41 95 93
c0 46 -49 63 -100 63h-1c-6 0 -8 8 -8 16c0 11 5 24 18 24c36 0 69 39 69 78c0 32 -22 64 -80 75c-11 -62 -31 -173 -40 -220c-20 -102 -84 -202 -159 -202c-6 0 -11 1 -17 2c-29 6 -83 53 -83 60c0 11 12 26 24 26c16 0 34 -37 72 -37c65 0 89 99 89 195v8
c0 35 9 109 18 163c-49 -16 -70 -47 -70 -71c0 -32 26 -25 26 -49zM546 257c0 -8 -18 -361 -18 -365c0 -10 0 -30 21 -30c18 0 47 20 55 20c5 0 9 -8 9 -17c0 -8 -3 -16 -12 -19c-30 -9 -57 -34 -87 -34c-32 0 -45 29 -53 58c-16 61 -26 125 -31 191
c-27 -35 -56 -68 -87 -101c12 -21 35 -33 64 -33c7 0 11 1 12 1c5 0 8 -7 8 -15c0 -7 -1 -29 -58 -29c-24 0 -51 7 -68 33c-66 -62 -123 -105 -173 -105h-3c-31 1 -50 21 -75 32c-3 1 -5 5 -5 9c0 11 11 28 25 28c13 0 31 -20 57 -20c71 0 243 202 305 390c9 27 33 37 57 37
c29 0 57 -15 57 -31zM288 540c0 -8 0 -24 -42 -24c-51 0 -92 41 -92 87c0 56 60 117 233 117c46 0 120 -41 171 -41c69 0 108 44 119 44s23 -11 23 -19c0 -2 -56 -75 -149 -75c-14 0 -30 2 -45 6c-9 -59 -26 -151 -35 -193c-22 -96 -88 -185 -163 -185c-6 0 -12 1 -19 2
c-36 8 -67 43 -96 62c-3 2 -4 5 -4 9c0 11 12 26 23 26c17 0 43 -48 82 -48c56 0 82 77 85 150c2 45 13 150 22 208c-12 3 -23 5 -32 5c-80 0 -113 -40 -113 -73c0 -39 32 -31 32 -58z" fill="currentColor"/>
</g>
<a style="color:inherit;" xlink:href="textedit:///Volumes/chris_1TB/Documents/musictheory_and_thefretboard/tools/fretboard-generator/tab/c-on-all-strings.ly:17:7:8">
<g transform="translate(11.5236, 7.5450)">
<path transform="scale(0.0040, -0.0040)" d="M347 -26c0 102 -89 139 -133 139c-23 0 -70 -10 -70 -89c0 -91 76 -136 132 -136c22 0 71 8 71 86zM245 136c144 0 246 -65 246 -136s-102 -136 -246 -136s-245 65 -245 136s101 136 245 136z" fill="currentColor"/>
</g>
</a>
<a style="color:inherit;" xlink:href="textedit:///Volumes/chris_1TB/Documents/musictheory_and_thefretboard/tools/fretboard-generator/tab/c-on-all-strings.ly:17:7:8">
<g color="rgba(100%, 100%, 100%, 100.0000%)">
<g transform="translate(11.5236, 16.1247)">
<rect x="0.0990" y="-0.6216" width="0.9902" height="1.2432" ry="0.0000" fill="currentColor"/>
</g>
</g>
<g transform="translate(11.6226, 16.7254)">
<text font-family="serif" font-weight="bold" font-size="1.7459" text-anchor="start" fill="currentColor">
<tspan>3</tspan>
</text>
</g>
</a>
<a style="color:inherit;" xlink:href="textedit:///Volumes/chris_1TB/Documents/musictheory_and_thefretboard/tools/fretboard-generator/tab/c-on-all-strings.ly:17:11:12">
<g transform="translate(17.1473, 4.0450)">
<path transform="scale(0.0040, -0.0040)" d="M347 -26c0 102 -89 139 -133 139c-23 0 -70 -10 -70 -89c0 -91 76 -136 132 -136c22 0 71 8 71 86zM245 136c144 0 246 -65 246 -136s-102 -136 -246 -136s-245 65 -245 136s101 136 245 136z" fill="currentColor"/>
</g>
</a>
<a style="color:inherit;" xlink:href="textedit:///Volumes/chris_1TB/Documents/musictheory_and_thefretboard/tools/fretboard-generator/tab/c-on-all-strings.ly:17:11:12">
<g color="rgba(100%, 100%, 100%, 100.0000%)">
<g transform="translate(17.1473, 14.6247)">
<rect x="-0.3961" y="-0.6321" width="1.9803" height="1.2641" ry="0.0000" fill="currentColor"/>
</g>
</g>
<g transform="translate(16.7512, 15.2358)">
<text font-family="serif" font-weight="bold" font-size="1.7459" text-anchor="start" fill="currentColor">
<tspan>10</tspan>
</text>
</g>
</a>
<a style="color:inherit;" xlink:href="textedit:///Volumes/chris_1TB/Documents/musictheory_and_thefretboard/tools/fretboard-generator/tab/c-on-all-strings.ly:17:16:17">
<g transform="translate(23.0184, 4.0450)">
<path transform="scale(0.0040, -0.0040)" d="M347 -26c0 102 -89 139 -133 139c-23 0 -70 -10 -70 -89c0 -91 76 -136 132 -136c22 0 71 8 71 86zM245 136c144 0 246 -65 246 -136s-102 -136 -246 -136s-245 65 -245 136s101 136 245 136z" fill="currentColor"/>
</g>
</a>
<a style="color:inherit;" xlink:href="textedit:///Volumes/chris_1TB/Documents/musictheory_and_thefretboard/tools/fretboard-generator/tab/c-on-all-strings.ly:17:16:17">
<g color="rgba(100%, 100%, 100%, 100.0000%)">
<g transform="translate(23.0184, 13.1247)">
<rect x="0.0990" y="-0.6696" width="0.9902" height="1.3392" ry="0.0000" fill="currentColor"/>
</g>
</g>
<g transform="translate(23.1174, 13.7734)">
<text font-family="serif" font-weight="bold" font-size="1.7459" text-anchor="start" fill="currentColor">
<tspan>5</tspan>
</text>
</g>
</a>
<a style="color:inherit;" xlink:href="textedit:///Volumes/chris_1TB/Documents/musictheory_and_thefretboard/tools/fretboard-generator/tab/c-on-all-strings.ly:17:21:22">
<g transform="translate(28.6421, 4.0450)">
<path transform="scale(0.0040, -0.0040)" d="M347 -26c0 102 -89 139 -133 139c-23 0 -70 -10 -70 -89c0 -91 76 -136 132 -136c22 0 71 8 71 86zM245 136c144 0 246 -65 246 -136s-102 -136 -246 -136s-245 65 -245 136s101 136 245 136z" fill="currentColor"/>
</g>
</a>
<a style="color:inherit;" xlink:href="textedit:///Volumes/chris_1TB/Documents/musictheory_and_thefretboard/tools/fretboard-generator/tab/c-on-all-strings.ly:17:21:22">
<g color="rgba(100%, 100%, 100%, 100.0000%)">
<g transform="translate(28.6421, 11.6247)">
<rect x="0.0990" y="-0.6216" width="0.9902" height="1.2432" ry="0.0000" fill="currentColor"/>
</g>
</g>
<g transform="translate(28.7411, 12.2463)">
<text font-family="serif" font-weight="bold" font-size="1.7459" text-anchor="start" fill="currentColor">
<tspan>1</tspan>
</text>
</g>
</a>
<a style="color:inherit;" xlink:href="textedit:///Volumes/chris_1TB/Documents/musictheory_and_thefretboard/tools/fretboard-generator/tab/c-on-all-strings.ly:17:26:27">
<g transform="translate(34.2657, 0.5450)">
<path transform="scale(0.0040, -0.0040)" d="M347 -26c0 102 -89 139 -133 139c-23 0 -70 -10 -70 -89c0 -91 76 -136 132 -136c22 0 71 8 71 86zM245 136c144 0 246 -65 246 -136s-102 -136 -246 -136s-245 65 -245 136s101 136 245 136z" fill="currentColor"/>
</g>
</a>
<g transform="translate(-0.0600, 10.0849)">
<rect x="0.0000" y="-7.5899" width="0.1600" height="15.1797" ry="0.0500" fill="currentColor"/>
</g>
<a style="color:inherit;" xlink:href="textedit:///Volumes/chris_1TB/Documents/musictheory_and_thefretboard/tools/fretboard-generator/tab/c-on-all-strings.ly:17:32:33">
<g transform="translate(39.8893, 4.0450)">
<path transform="scale(0.0040, -0.0040)" d="M347 -26c0 102 -89 139 -133 139c-23 0 -70 -10 -70 -89c0 -91 76 -136 132 -136c22 0 71 8 71 86zM245 136c144 0 246 -65 246 -136s-102 -136 -246 -136s-245 65 -245 136s101 136 245 136z" fill="currentColor"/>
</g>
</a>
<a style="color:inherit;" xlink:href="textedit:///Volumes/chris_1TB/Documents/musictheory_and_thefretboard/tools/fretboard-generator/tab/c-on-all-strings.ly:17:32:33">
<g color="rgba(100%, 100%, 100%, 100.0000%)">
<g transform="translate(39.8893, 11.6247)">
<rect x="0.0990" y="-0.6216" width="0.9902" height="1.2432" ry="0.0000" fill="currentColor"/>
</g>
</g>
<g transform="translate(39.9883, 12.2463)">
<text font-family="serif" font-weight="bold" font-size="1.7459" text-anchor="start" fill="currentColor">
<tspan>1</tspan>
</text>
</g>
</a>
<a style="color:inherit;" xlink:href="textedit:///Volumes/chris_1TB/Documents/musictheory_and_thefretboard/tools/fretboard-generator/tab/c-on-all-strings.ly:17:37:38">
<g transform="translate(45.5130, 4.0450)">
<path transform="scale(0.0040, -0.0040)" d="M347 -26c0 102 -89 139 -133 139c-23 0 -70 -10 -70 -89c0 -91 76 -136 132 -136c22 0 71 8 71 86zM245 136c144 0 246 -65 246 -136s-102 -136 -246 -136s-245 65 -245 136s101 136 245 136z" fill="currentColor"/>
</g>
</a>
<a style="color:inherit;" xlink:href="textedit:///Volumes/chris_1TB/Documents/musictheory_and_thefretboard/tools/fretboard-generator/tab/c-on-all-strings.ly:17:37:38">
<g color="rgba(100%, 100%, 100%, 100.0000%)">
<g transform="translate(45.5130, 13.1247)">
<rect x="0.0990" y="-0.6696" width="0.9902" height="1.3392" ry="0.0000" fill="currentColor"/>
</g>
</g>
<g transform="translate(45.6120, 13.7734)">
<text font-family="serif" font-weight="bold" font-size="1.7459" text-anchor="start" fill="currentColor">
<tspan>5</tspan>
</text>
</g>
</a>
<a style="color:inherit;" xlink:href="textedit:///Volumes/chris_1TB/Documents/musictheory_and_thefretboard/tools/fretboard-generator/tab/c-on-all-strings.ly:17:42:43">
<g transform="translate(51.1366, 4.0450)">
<path transform="scale(0.0040, -0.0040)" d="M347 -26c0 102 -89 139 -133 139c-23 0 -70 -10 -70 -89c0 -91 76 -136 132 -136c22 0 71 8 71 86zM245 136c144 0 246 -65 246 -136s-102 -136 -246 -136s-245 65 -245 136s101 136 245 136z" fill="currentColor"/>
</g>
</a>
<a style="color:inherit;" xlink:href="textedit:///Volumes/chris_1TB/Documents/musictheory_and_thefretboard/tools/fretboard-generator/tab/c-on-all-strings.ly:17:42:43">
<g color="rgba(100%, 100%, 100%, 100.0000%)">
<g transform="translate(51.1366, 14.6247)">
<rect x="-0.3961" y="-0.6321" width="1.9803" height="1.2641" ry="0.0000" fill="currentColor"/>
</g>
</g>
<g transform="translate(50.7405, 15.2358)">
<text font-family="serif" font-weight="bold" font-size="1.7459" text-anchor="start" fill="currentColor">
<tspan>10</tspan>
</text>
</g>
</a>
<a style="color:inherit;" xlink:href="textedit:///Volumes/chris_1TB/Documents/musictheory_and_thefretboard/tools/fretboard-generator/tab/c-on-all-strings.ly:17:47:48">
<g transform="translate(57.0078, 7.5450)">
<path transform="scale(0.0040, -0.0040)" d="M347 -26c0 102 -89 139 -133 139c-23 0 -70 -10 -70 -89c0 -91 76 -136 132 -136c22 0 71 8 71 86zM245 136c144 0 246 -65 246 -136s-102 -136 -246 -136s-245 65 -245 136s101 136 245 136z" fill="currentColor"/>
</g>
</a>
<a style="color:inherit;" xlink:href="textedit:///Volumes/chris_1TB/Documents/musictheory_and_thefretboard/tools/fretboard-generator/tab/c-on-all-strings.ly:17:47:48">
<g color="rgba(100%, 100%, 100%, 100.0000%)">
<g transform="translate(57.0078, 16.1247)">
<rect x="0.0990" y="-0.6216" width="0.9902" height="1.2432" ry="0.0000" fill="currentColor"/>
</g>
</g>
<g transform="translate(57.1068, 16.7254)">
<text font-family="serif" font-weight="bold" font-size="1.7459" text-anchor="start" fill="currentColor">
<tspan>3</tspan>
</text>
</g>
</a>
<a style="color:inherit;" xlink:href="textedit:///Volumes/chris_1TB/Documents/musictheory_and_thefretboard/tools/fretboard-generator/tab/c-on-all-strings.ly:17:51:52">
<g transform="translate(62.6314, 7.5450)">
<path transform="scale(0.0040, -0.0040)" d="M347 -26c0 102 -89 139 -133 139c-23 0 -70 -10 -70 -89c0 -91 76 -136 132 -136c22 0 71 8 71 86zM245 136c144 0 246 -65 246 -136s-102 -136 -246 -136s-245 65 -245 136s101 136 245 136z" fill="currentColor"/>
</g>
</a>
<a style="color:inherit;" xlink:href="textedit:///Volumes/chris_1TB/Documents/musictheory_and_thefretboard/tools/fretboard-generator/tab/c-on-all-strings.ly:17:51:52">
<g color="rgba(100%, 100%, 100%, 100.0000%)">
<g transform="translate(62.6314, 17.6247)">
<rect x="0.0990" y="-0.6321" width="0.9902" height="1.2641" ry="0.0000" fill="currentColor"/>
</g>
</g>
<g transform="translate(62.7304, 18.2358)">
<text font-family="serif" font-weight="bold" font-size="1.7459" text-anchor="start" fill="currentColor">
<tspan>8</tspan>
</text>
</g>
</a>
</svg>
