<svg xmlns="http://www.w3.org/2000/svg" width="100%" height="179" viewBox="0 0 860.0 179.0" font-family="'Inter', 'Helvetica Neue', Arial, sans-serif">
  <defs><style>@import url('https://fonts.googleapis.com/css2?family=Inter:wght@400;700&amp;display=swap');</style></defs>
  <rect x="0" y="0" width="860.0" height="179.0" fill="#ffffff"/>
  <text x="430.0" y="28" text-anchor="middle" font-size="14" font-weight="bold" fill="#1a1a1a">The same note name repeats 12 frets higher on E, A, and D</text>
  <rect x="60" y="52" width="780.0" height="84.0" fill="#f5f0e8" stroke="none"/>
  <line x1="60.0" y1="52" x2="60.0" y2="136.0" stroke="#1a1a1a" stroke-width="4.0"/>
  <line x1="112.0" y1="52" x2="112.0" y2="136.0" stroke="#1a1a1a" stroke-width="1.5"/>
  <line x1="164.0" y1="52" x2="164.0" y2="136.0" stroke="#1a1a1a" stroke-width="1.5"/>
  <line x1="216.0" y1="52" x2="216.0" y2="136.0" stroke="#1a1a1a" stroke-width="1.5"/>
  <line x1="268.0" y1="52" x2="268.0" y2="136.0" stroke="#1a1a1a" stroke-width="1.5"/>
  <line x1="320.0" y1="52" x2="320.0" y2="136.0" stroke="#1a1a1a" stroke-width="1.5"/>
  <line x1="372.0" y1="52" x2="372.0" y2="136.0" stroke="#1a1a1a" stroke-width="1.5"/>
  <line x1="424.0" y1="52" x2="424.0" y2="136.0" stroke="#1a1a1a" stroke-width="1.5"/>
  <line x1="476.0" y1="52" x2="476.0" y2="136.0" stroke="#1a1a1a" stroke-width="1.5"/>
  <line x1="528.0" y1="52" x2="528.0" y2="136.0" stroke="#1a1a1a" stroke-width="1.5"/>
  <line x1="580.0" y1="52" x2="580.0" y2="136.0" stroke="#1a1a1a" stroke-width="1.5"/>
  <line x1="632.0" y1="52" x2="632.0" y2="136.0" stroke="#1a1a1a" stroke-width="1.5"/>
  <line x1="684.0" y1="52" x2="684.0" y2="136.0" stroke="#1a1a1a" stroke-width="1.5"/>
  <line x1="736.0" y1="52" x2="736.0" y2="136.0" stroke="#1a1a1a" stroke-width="1.5"/>
  <line x1="788.0" y1="52" x2="788.0" y2="136.0" stroke="#1a1a1a" stroke-width="1.5"/>
  <line x1="840.0" y1="52" x2="840.0" y2="136.0" stroke="#1a1a1a" stroke-width="1.5"/>
  <line x1="60.0" y1="136.0" x2="840.0" y2="136.0" stroke="#1a1a1a" stroke-width="1.74"/>
  <line x1="60.0" y1="108.0" x2="840.0" y2="108.0" stroke="#1a1a1a" stroke-width="1.56"/>
  <line x1="60.0" y1="80.0" x2="840.0" y2="80.0" stroke="#1a1a1a" stroke-width="1.38"/>
  <line x1="60.0" y1="52.0" x2="840.0" y2="52.0" stroke="#1a1a1a" stroke-width="1.2"/>
  <circle cx="190.0" cy="94.0" r="5.0" fill="#c8c0a8" stroke="#1a1a1a" stroke-width="0.8"/>
  <circle cx="294.0" cy="94.0" r="5.0" fill="#c8c0a8" stroke="#1a1a1a" stroke-width="0.8"/>
  <circle cx="398.0" cy="94.0" r="5.0" fill="#c8c0a8" stroke="#1a1a1a" stroke-width="0.8"/>
  <circle cx="502.0" cy="94.0" r="5.0" fill="#c8c0a8" stroke="#1a1a1a" stroke-width="0.8"/>
  <circle cx="658.0" cy="66.0" r="5.0" fill="#c8c0a8" stroke="#1a1a1a" stroke-width="0.8"/>
  <circle cx="658.0" cy="122.0" r="5.0" fill="#c8c0a8" stroke="#1a1a1a" stroke-width="0.8"/>
  <circle cx="814.0" cy="94.0" r="5.0" fill="#c8c0a8" stroke="#1a1a1a" stroke-width="0.8"/>
  <text x="190.0" y="161.0" text-anchor="middle" font-size="10" fill="#1a1a1a">3</text>
  <text x="294.0" y="161.0" text-anchor="middle" font-size="10" fill="#1a1a1a">5</text>
  <text x="398.0" y="161.0" text-anchor="middle" font-size="10" fill="#1a1a1a">7</text>
  <text x="502.0" y="161.0" text-anchor="middle" font-size="10" fill="#1a1a1a">9</text>
  <text x="658.0" y="161.0" text-anchor="middle" font-size="10" fill="#1a1a1a">12</text>
  <text x="814.0" y="161.0" text-anchor="middle" font-size="10" fill="#1a1a1a">15</text>
  <text x="46" y="140.0" text-anchor="middle" font-size="11" font-style="italic" fill="#1a1a1a">E</text>
  <text x="46" y="112.0" text-anchor="middle" font-size="11" font-style="italic" fill="#1a1a1a">A</text>
  <text x="46" y="84.0" text-anchor="middle" font-size="11" font-style="italic" fill="#1a1a1a">D</text>
  <text x="46" y="56.0" text-anchor="middle" font-size="11" font-style="italic" fill="#1a1a1a">G</text>
  <circle cx="46" cy="136.0" r="11.0" fill="#0e5a53" stroke="#1a1a1a" stroke-width="1.8"/>
  <text x="46.0" y="140.32" text-anchor="middle" font-size="12" font-weight="bold" font-family="'Inter', 'Helvetica Neue', Arial, sans-serif" fill="#ffffff">E</text>
  <circle cx="658.0" cy="136.0" r="11.0" fill="#147a70" stroke="#1a1a1a" stroke-width="1.8"/>
  <circle cx="190.0" cy="108.0" r="11.0" fill="#244a78" stroke="#1a1a1a" stroke-width="1.8"/>
  <circle cx="814.0" cy="108.0" r="11.0" fill="#3a68a8" stroke="#1a1a1a" stroke-width="1.8"/>
  <circle cx="138.0" cy="80.0" r="11.0" fill="#147a70" stroke="#1a1a1a" stroke-width="1.8"/>
  <circle cx="762.0" cy="80.0" r="11.0" fill="#28b8aa" stroke="#1a1a1a" stroke-width="1.8"/>
</svg>