<svg xmlns="http://www.w3.org/2000/svg" width="100%" height="240" viewBox="0 0 760 240" font-family="'Inter', 'Helvetica Neue', Arial, sans-serif">
  <title>Four-line bass tablature moving from open E to open A</title>
  <rect x="0" y="0" width="760" height="240" fill="#ffffff"/>
  <text x="380" y="30" text-anchor="middle" font-size="20" font-weight="700" fill="#1a1a1a">Move UP one string: open E to open A</text>
  <text x="230" y="62" text-anchor="middle" font-size="14" fill="#3a4a5a">Measure 1</text>
  <text x="545" y="62" text-anchor="middle" font-size="14" fill="#3a4a5a">Measure 2</text>
  <line x1="80" y1="80" x2="710" y2="80" stroke="#1a1a1a" stroke-width="2"/><text x="52" y="85" text-anchor="middle" font-size="18" font-style="italic" fill="#1a1a1a">G</text><line x1="80" y1="115" x2="710" y2="115" stroke="#1a1a1a" stroke-width="2"/><text x="52" y="120" text-anchor="middle" font-size="18" font-style="italic" fill="#1a1a1a">D</text><line x1="80" y1="150" x2="710" y2="150" stroke="#1a1a1a" stroke-width="2"/><text x="52" y="155" text-anchor="middle" font-size="18" font-style="italic" fill="#1a1a1a">A</text><line x1="80" y1="185" x2="710" y2="185" stroke="#1a1a1a" stroke-width="2"/><text x="52" y="190" text-anchor="middle" font-size="18" font-style="italic" fill="#1a1a1a">E</text><line x1="80" y1="80" x2="80" y2="185" stroke="#1a1a1a" stroke-width="3"/><line x1="380" y1="80" x2="380" y2="185" stroke="#1a1a1a" stroke-width="3"/><line x1="710" y1="80" x2="710" y2="185" stroke="#1a1a1a" stroke-width="3"/><rect x="118" y="170" width="24" height="28" fill="#ffffff"/><text x="130" y="191" text-anchor="middle" font-size="20" font-weight="700" fill="#1a1a1a">0</text><rect x="183" y="170" width="24" height="28" fill="#ffffff"/><text x="195" y="191" text-anchor="middle" font-size="20" font-weight="700" fill="#1a1a1a">0</text><rect x="248" y="170" width="24" height="28" fill="#ffffff"/><text x="260" y="191" text-anchor="middle" font-size="20" font-weight="700" fill="#1a1a1a">0</text><rect x="313" y="170" width="24" height="28" fill="#ffffff"/><text x="325" y="191" text-anchor="middle" font-size="20" font-weight="700" fill="#1a1a1a">0</text><rect x="418" y="135" width="24" height="28" fill="#ffffff"/><text x="430" y="156" text-anchor="middle" font-size="20" font-weight="700" fill="#1a1a1a">0</text><rect x="483" y="135" width="24" height="28" fill="#ffffff"/><text x="495" y="156" text-anchor="middle" font-size="20" font-weight="700" fill="#1a1a1a">0</text><rect x="548" y="135" width="24" height="28" fill="#ffffff"/><text x="560" y="156" text-anchor="middle" font-size="20" font-weight="700" fill="#1a1a1a">0</text><rect x="613" y="135" width="24" height="28" fill="#ffffff"/><text x="625" y="156" text-anchor="middle" font-size="20" font-weight="700" fill="#1a1a1a">0</text>
  <text x="380" y="225" text-anchor="middle" font-size="14" fill="#3a4a5a">E is String 4 · A is String 3</text>
</svg>