<svg xmlns="http://www.w3.org/2000/svg" width="100%" height="179" viewBox="0 0 704.0 179.0" font-family="'Inter', 'Helvetica Neue', Arial, sans-serif">
  <defs><style>@import url('https://fonts.googleapis.com/css2?family=Inter:wght@400;700&amp;display=swap');</style></defs>
  <rect x="0" y="0" width="704.0" height="179.0" fill="#ffffff"/>
  <text x="352.0" y="28" text-anchor="middle" font-size="14" font-weight="bold" fill="#1a1a1a">Four-string bass standard tuning: E–A–D–G</text>
  <rect x="60" y="52" width="624.0" height="84.0" fill="#f5f0e8" stroke="none"/>
  <line x1="60.0" y1="52" x2="60.0" y2="136.0" stroke="#1a1a1a" stroke-width="4.0"/>
  <line x1="112.0" y1="52" x2="112.0" y2="136.0" stroke="#1a1a1a" stroke-width="1.5"/>
  <line x1="164.0" y1="52" x2="164.0" y2="136.0" stroke="#1a1a1a" stroke-width="1.5"/>
  <line x1="216.0" y1="52" x2="216.0" y2="136.0" stroke="#1a1a1a" stroke-width="1.5"/>
  <line x1="268.0" y1="52" x2="268.0" y2="136.0" stroke="#1a1a1a" stroke-width="1.5"/>
  <line x1="320.0" y1="52" x2="320.0" y2="136.0" stroke="#1a1a1a" stroke-width="1.5"/>
  <line x1="372.0" y1="52" x2="372.0" y2="136.0" stroke="#1a1a1a" stroke-width="1.5"/>
  <line x1="424.0" y1="52" x2="424.0" y2="136.0" stroke="#1a1a1a" stroke-width="1.5"/>
  <line x1="476.0" y1="52" x2="476.0" y2="136.0" stroke="#1a1a1a" stroke-width="1.5"/>
  <line x1="528.0" y1="52" x2="528.0" y2="136.0" stroke="#1a1a1a" stroke-width="1.5"/>
  <line x1="580.0" y1="52" x2="580.0" y2="136.0" stroke="#1a1a1a" stroke-width="1.5"/>
  <line x1="632.0" y1="52" x2="632.0" y2="136.0" stroke="#1a1a1a" stroke-width="1.5"/>
  <line x1="684.0" y1="52" x2="684.0" y2="136.0" stroke="#1a1a1a" stroke-width="1.5"/>
  <line x1="60.0" y1="136.0" x2="684.0" y2="136.0" stroke="#1a1a1a" stroke-width="1.74"/>
  <line x1="60.0" y1="108.0" x2="684.0" y2="108.0" stroke="#1a1a1a" stroke-width="1.56"/>
  <line x1="60.0" y1="80.0" x2="684.0" y2="80.0" stroke="#1a1a1a" stroke-width="1.38"/>
  <line x1="60.0" y1="52.0" x2="684.0" y2="52.0" stroke="#1a1a1a" stroke-width="1.2"/>
  <circle cx="190.0" cy="94.0" r="5.0" fill="#c8c0a8" stroke="#1a1a1a" stroke-width="0.8"/>
  <circle cx="294.0" cy="94.0" r="5.0" fill="#c8c0a8" stroke="#1a1a1a" stroke-width="0.8"/>
  <circle cx="398.0" cy="94.0" r="5.0" fill="#c8c0a8" stroke="#1a1a1a" stroke-width="0.8"/>
  <circle cx="502.0" cy="94.0" r="5.0" fill="#c8c0a8" stroke="#1a1a1a" stroke-width="0.8"/>
  <circle cx="658.0" cy="66.0" r="5.0" fill="#c8c0a8" stroke="#1a1a1a" stroke-width="0.8"/>
  <circle cx="658.0" cy="122.0" r="5.0" fill="#c8c0a8" stroke="#1a1a1a" stroke-width="0.8"/>
  <text x="46" y="140.0" text-anchor="middle" font-size="11" font-style="italic" fill="#1a1a1a">E</text>
  <text x="46" y="112.0" text-anchor="middle" font-size="11" font-style="italic" fill="#1a1a1a">A</text>
  <text x="46" y="84.0" text-anchor="middle" font-size="11" font-style="italic" fill="#1a1a1a">D</text>
  <text x="46" y="56.0" text-anchor="middle" font-size="11" font-style="italic" fill="#1a1a1a">G</text>
</svg>